<svg version="1.1" viewBox="0.0 0.0 789.9055118110236 199.07874015748033" fill="none" stroke="none" stroke-linecap="square" stroke-miterlimit="10" xmlns:xlink="http://www.w3.org/1999/xlink" xmlns="http://www.w3.org/2000/svg"><clipPath id="p.0"><path d="m0 0l789.9055 0l0 199.07874l-789.9055 0l0 -199.07874z" clip-rule="nonzero"/></clipPath><g clip-path="url(#p.0)"><path fill="#000000" fill-opacity="0.0" d="m0 0l789.9055 0l0 199.07874l-789.9055 0z" fill-rule="evenodd"/><path fill="#000000" fill-opacity="0.0" d="m-2.9396326E-5 -11.790833l132.40945 -10.519685l9.606293 120.88189l-132.40945 10.519684z" fill-rule="evenodd"/><path fill="#6d9eeb" d="m49.502426 167.93317q-3.4267044 0.2722473 -5.851799 -1.4473419q-2.4095192 -1.7208252 -2.6682167 -4.976181l-10.097912 -127.06815q-0.24384499 -3.0684528 1.5914345 -5.220564q1.8352814 -2.152111 4.903736 -2.395895l43.924095 -3.489687q10.840836 -0.86128616 19.97647 3.0524788q9.135628 3.913765 14.923767 11.463442q5.7881393 7.549679 6.6211777 18.032253q0.77485657 9.750515 -3.8701859 17.768581q-4.6462784 8.002487 -12.819519 12.648766q12.376762 2.2926025 20.48706 10.660942q8.124626 8.351524 9.216362 22.089462q0.97662354 12.289383 -3.8830872 22.142715q-4.8453674 9.836517 -14.280357 15.962372q-9.420662 6.1090393 -22.083885 7.1151123l-46.08914 3.6616974zm5.0756073 -14.039825l39.93666 -3.1728973q8.675781 -0.6892853 15.085541 -4.6468506q6.424095 -3.9743958 9.722076 -10.600143q3.2967377 -6.641342 2.6072922 -15.317108q-0.6461334 -8.130623 -4.928154 -13.887695q-4.282028 -5.75708 -11.24456 -8.558205q-6.9481964 -2.8179398 -15.623985 -2.1286697l-39.936657 3.1728973l4.3817863 55.13867zm-5.458664 -68.689705l36.868202 -2.9291077q10.840836 -0.86128235 17.409042 -7.5587616q6.566963 -6.7130585 5.690605 -17.740791q-0.86273956 -10.8564 -8.362999 -15.887569q-7.501503 -5.0467415 -18.342339 -4.185459l-36.868202 2.9291115l3.60569 45.372578z" fill-rule="nonzero"/><path fill="#000000" fill-opacity="0.0" d="m27.251066 34.676197l10.929132 132.0315" fill-rule="evenodd"/><path stroke="#6d9eeb" stroke-width="3.0" stroke-linejoin="round" stroke-linecap="butt" d="m27.251066 34.676197l10.929132 132.0315" fill-rule="evenodd"/><path fill="#000000" fill-opacity="0.0" d="m130.5538 17.509117l699.5906 0l0 149.19684l-699.5906 0z" fill-rule="evenodd"/><path fill="#6d9eeb" d="m178.3038 137.04224q-9.28125 0 -16.390625 -4.0625q-7.109375 -4.078125 -11.1875 -11.234375q-4.0625 -7.171875 -4.0625 -16.453125q0 -9.40625 4.0625 -16.5625q4.078125 -7.171875 11.1875 -11.234375q7.109375 -4.078125 16.390625 -4.078125q9.171875 0 16.28125 4.078125q7.109375 4.0625 11.171875 11.234375q4.078125 7.15625 4.078125 16.5625q0 9.28125 -4.015625 16.453125q-4.0 7.15625 -11.109375 11.234375q-7.109375 4.0625 -16.40625 4.0625zm0 -10.3125q5.96875 0 10.546875 -2.75q4.59375 -2.75 7.171875 -7.5625q2.578125 -4.828125 2.578125 -11.125q0 -6.3125 -2.578125 -11.1875q-2.578125 -4.875 -7.171875 -7.625q-4.578125 -2.75 -10.546875 -2.75q-5.953125 0 -10.546875 2.75q-4.578125 2.75 -7.21875 7.625q-2.640625 4.875 -2.640625 11.1875q0 6.296875 2.640625 11.125q2.640625 4.8125 7.21875 7.5625q4.59375 2.75 10.546875 2.75zm71.78357 9.859375q-5.734375 0 -10.328125 -2.921875q-4.578125 -2.921875 -7.21875 -7.96875q-2.640625 -5.046875 -2.640625 -11.359375l0 -54.6875q0 -2.515625 1.609375 -4.125q1.609375 -1.609375 4.125 -1.609375q2.53125 0 4.125 1.609375q1.609375 1.609375 1.609375 4.125l0 54.6875q0 4.59375 2.515625 7.6875q2.53125 3.09375 6.203125 3.09375l3.890625 0q2.0625 0 3.5 1.609375q1.4375 1.609375 1.4375 4.125q0 2.53125 -1.890625 4.140625q-1.890625 1.59375 -4.875 1.59375l-2.0625 0zm-25.453125 -50.5625q-2.40625 0 -3.90625 -1.375q-1.484375 -1.375 -1.484375 -3.4375q0 -2.296875 1.484375 -3.671875q1.5 -1.375 3.90625 -1.375l26.484375 0q2.40625 0 3.890625 1.375q1.5 1.375 1.5 3.671875q0 2.0625 -1.5 3.4375q-1.484375 1.375 -3.890625 1.375l-26.484375 0zm74.74277 51.015625q-8.359375 0 -15.015625 -4.171875q-6.640625 -4.1875 -10.484375 -11.359375q-3.84375 -7.171875 -3.84375 -16.21875q0 -9.0625 4.1875 -16.28125q4.1875 -7.234375 11.34375 -11.40625q7.171875 -4.1875 16.109375 -4.1875q8.953125 0 16.0625 4.1875q7.109375 4.171875 11.28125 11.40625q4.1875 7.21875 4.1875 16.28125l-4.46875 0q0 9.046875 -3.84375 16.21875q-3.84375 7.171875 -10.5 11.359375q-6.640625 4.171875 -15.015625 4.171875zm2.296875 -10.3125q5.84375 0 10.4375 -2.8125q4.59375 -2.8125 7.21875 -7.671875q2.640625 -4.875 2.640625 -10.953125q0 -6.203125 -2.640625 -11.0625q-2.625 -4.875 -7.21875 -7.6875q-4.59375 -2.8125 -10.4375 -2.8125q-5.734375 0 -10.375 2.8125q-4.640625 2.8125 -7.34375 7.6875q-2.6875 4.859375 -2.6875 11.0625q0 6.078125 2.6875 10.953125q2.703125 4.859375 7.34375 7.671875q4.640625 2.8125 10.375 2.8125zm25.6875 9.96875q-2.515625 0 -4.1875 -1.65625q-1.65625 -1.65625 -1.65625 -4.1875l0 -17.546875l2.171875 -12.140625l9.515625 4.125l0 25.5625q0 2.53125 -1.671875 4.1875q-1.65625 1.65625 -4.171875 1.65625z" fill-rule="nonzero"/><path fill="#4e5c9d" d="m403.6137 136.69849q-2.53125 0 -4.203125 -1.65625q-1.65625 -1.65625 -1.65625 -4.1875l0 -28.203125q0 -6.53125 -2.40625 -10.65625q-2.40625 -4.140625 -6.484375 -6.140625q-4.0625 -2.0 -9.328125 -2.0q-4.828125 0 -8.734375 1.953125q-3.890625 1.9375 -6.1875 5.203125q-2.28125 3.265625 -2.28125 7.515625l-7.21875 0q0 -7.234375 3.484375 -12.90625q3.5 -5.671875 9.578125 -9.0q6.078125 -3.328125 13.640625 -3.328125q7.921875 0 14.171875 3.390625q6.25 3.375 9.859375 9.921875q3.609375 6.53125 3.609375 16.046875l0 28.203125q0 2.53125 -1.671875 4.1875q-1.65625 1.65625 -4.171875 1.65625zm-47.125 0q-2.53125 0 -4.203125 -1.65625q-1.65625 -1.65625 -1.65625 -4.1875l0 -51.140625q0 -2.625 1.65625 -4.234375q1.671875 -1.609375 4.203125 -1.609375q2.625 0 4.234375 1.609375q1.609375 1.609375 1.609375 4.234375l0 51.140625q0 2.53125 -1.609375 4.1875q-1.609375 1.65625 -4.234375 1.65625zm98.476776 0.34375q-8.359375 0 -15.015625 -4.171875q-6.640625 -4.1875 -10.484375 -11.359375q-3.84375 -7.171875 -3.84375 -16.21875q0 -9.0625 4.1875 -16.28125q4.1875 -7.234375 11.34375 -11.40625q7.171875 -4.1875 16.109375 -4.1875q8.953125 0 16.0625 4.1875q7.109375 4.171875 11.28125 11.40625q4.1875 7.21875 4.1875 16.28125l-4.46875 0q0 9.046875 -3.84375 16.21875q-3.84375 7.171875 -10.5 11.359375q-6.640625 4.171875 -15.015625 4.171875zm2.296875 -10.3125q5.84375 0 10.4375 -2.8125q4.59375 -2.8125 7.21875 -7.671875q2.640625 -4.875 2.640625 -10.953125q0 -6.203125 -2.640625 -11.0625q-2.625 -4.875 -7.21875 -7.6875q-4.59375 -2.8125 -10.4375 -2.8125q-5.734375 0 -10.375 2.8125q-4.640625 2.8125 -7.34375 7.6875q-2.6875 4.859375 -2.6875 11.0625q0 6.078125 2.6875 10.953125q2.703125 4.859375 7.34375 7.671875q4.640625 2.8125 10.375 2.8125zm25.6875 9.96875q-2.515625 0 -4.1875 -1.65625q-1.65625 -1.65625 -1.65625 -4.1875l0 -17.546875l2.171875 -12.140625l9.515625 4.125l0 25.5625q0 2.53125 -1.671875 4.1875q-1.65625 1.65625 -4.171875 1.65625z" fill-rule="nonzero"/><path fill="#6d9eeb" d="m511.8428 97.37036q0 -6.875 3.3750305 -12.3125q3.390625 -5.453125 9.125 -8.65625q5.734375 -3.21875 12.609375 -3.21875q6.875 0 10.25 2.234375q3.390625 2.234375 2.59375 5.328125q-0.34375 1.609375 -1.328125 2.46875q-0.96875 0.859375 -2.234375 1.09375q-1.25 0.234375 -2.75 -0.109375q-7.328125 -1.5 -13.1875 -0.234375q-5.84375 1.265625 -9.234375 4.703125q-3.375 3.4375 -3.375 8.703125l-5.8437805 0zm0.109375 39.21875q-2.75 0 -4.25 -1.421875q-1.484375 -1.4375 -1.484375 -4.3125l0 -51.25q0 -2.75 1.484375 -4.234375q1.5 -1.5 4.25 -1.5q2.8750305 0 4.2969055 1.4375q1.4375 1.4375 1.4375 4.296875l0 51.25q0 2.75 -1.4375 4.25q-1.421875 1.484375 -4.2969055 1.484375zm74.870636 0.453125q-9.515625 0 -16.90625 -4.0625q-7.390625 -4.078125 -11.578125 -11.234375q-4.1875 -7.171875 -4.1875 -16.453125q0 -9.40625 3.953125 -16.5625q3.953125 -7.171875 10.953125 -11.234375q7.0 -4.078125 16.046875 -4.078125q8.953125 0 15.359375 3.953125q6.421875 3.953125 9.796875 10.890625q3.390625 6.9375 3.390625 16.0q0 2.171875 -1.484375 3.609375q-1.484375 1.4375 -3.78125 1.4375l-46.203125 0l0 -9.171875l45.859375 0l-4.703125 3.203125q-0.109375 -5.734375 -2.296875 -10.265625q-2.171875 -4.53125 -6.1875 -7.15625q-4.015625 -2.640625 -9.75 -2.640625q-6.53125 0 -11.171875 2.875q-4.640625 2.859375 -7.0625 7.84375q-2.40625 4.984375 -2.40625 11.296875q0 6.296875 2.859375 11.234375q2.875 4.921875 7.921875 7.796875q5.046875 2.859375 11.578125 2.859375q3.5625 0 7.28125 -1.3125q3.734375 -1.3125 6.015625 -3.046875q1.734375 -1.25 3.734375 -1.3125q2.0 -0.0625 3.5 1.203125q1.953125 1.71875 2.0625 3.78125q0.109375 2.0625 -1.84375 3.5625q-3.890625 3.09375 -9.6875 5.046875q-5.78125 1.9375 -11.0625 1.9375zm67.87695 0q-8.9375 0 -16.109375 -4.171875q-7.15625 -4.1875 -11.34375 -11.40625q-4.1875 -7.234375 -4.1875 -16.296875q0 -9.046875 3.84375 -16.21875q3.84375 -7.171875 10.484375 -11.34375q6.65625 -4.1875 15.015625 -4.1875q6.765625 0 12.5 2.8125q5.734375 2.796875 9.640625 7.625l0 -30.96875q0 -2.640625 1.65625 -4.234375q1.671875 -1.609375 4.1875 -1.609375q2.640625 0 4.234375 1.609375q1.609375 1.59375 1.609375 4.234375l0 52.28125q0 9.0625 -4.1875 16.296875q-4.171875 7.21875 -11.28125 11.40625q-7.109375 4.171875 -16.0625 4.171875zm0 -10.3125q5.84375 0 10.4375 -2.8125q4.59375 -2.8125 7.21875 -7.734375q2.640625 -4.9375 2.640625 -11.015625q0 -6.1875 -2.640625 -11.0q-2.625 -4.8125 -7.21875 -7.625q-4.59375 -2.8125 -10.4375 -2.8125q-5.734375 0 -10.375 2.8125q-4.640625 2.8125 -7.34375 7.625q-2.6875 4.8125 -2.6875 11.0q0 6.078125 2.6875 11.015625q2.703125 4.921875 7.34375 7.734375q4.640625 2.8125 10.375 2.8125zm81.63458 10.3125q-9.515625 0 -16.90625 -4.0625q-7.390625 -4.078125 -11.578125 -11.234375q-4.1875 -7.171875 -4.1875 -16.453125q0 -9.40625 3.953125 -16.5625q3.953125 -7.171875 10.953125 -11.234375q7.0 -4.078125 16.046875 -4.078125q8.953125 0 15.359375 3.953125q6.421875 3.953125 9.796875 10.890625q3.390625 6.9375 3.390625 16.0q0 2.171875 -1.484375 3.609375q-1.484375 1.4375 -3.78125 1.4375l-46.203125 0l0 -9.171875l45.859375 0l-4.703125 3.203125q-0.109375 -5.734375 -2.296875 -10.265625q-2.171875 -4.53125 -6.1875 -7.15625q-4.015625 -2.640625 -9.75 -2.640625q-6.53125 0 -11.171875 2.875q-4.640625 2.859375 -7.0625 7.84375q-2.40625 4.984375 -2.40625 11.296875q0 6.296875 2.859375 11.234375q2.875 4.921875 7.921875 7.796875q5.046875 2.859375 11.578125 2.859375q3.5625 0 7.28125 -1.3125q3.734375 -1.3125 6.015625 -3.046875q1.734375 -1.25 3.734375 -1.3125q2.0 -0.0625 3.5 1.203125q1.953125 1.71875 2.0625 3.78125q0.109375 2.0625 -1.84375 3.5625q-3.890625 3.09375 -9.6875 5.046875q-5.78125 1.9375 -11.0625 1.9375z" fill-rule="nonzero"/></g></svg>